<?xml version="1.0" encoding="UTF-8" standalone="no"?>
<!DOCTYPE svg PUBLIC "-//W3C//DTD SVG 1.1//EN" "http://www.w3.org/Graphics/SVG/1.1/DTD/svg11.dtd">
<svg width="100%" height="100%" viewBox="0 0 1698 1110" version="1.1" xmlns="http://www.w3.org/2000/svg" xmlns:xlink="http://www.w3.org/1999/xlink" xml:space="preserve" xmlns:serif="http://www.serif.com/" style="fill-rule:evenodd;clip-rule:evenodd;stroke-linecap:round;stroke-linejoin:round;stroke-miterlimit:1.5;">
    <path id="guest-bedroom" d="M202.304,566.171L201.332,898.803L556.636,901.07L555.664,565.848" style="fill:white;fill-opacity:0;stroke:black;stroke-width:1px;"/>
    <path id="hallway-bathroom" d="M767.786,677.008L575.527,677.785L574.491,1062.681L767.009,1062.681" style="fill:white;fill-opacity:0;stroke:black;stroke-width:1px;"/>
    <path id="stairwell" d="M1034.136,659.693L1033.124,1061.163L786.666,1062.681L785.654,659.693" style="fill:white;fill-opacity:0;stroke:black;stroke-width:1px;"/>
    <path id="master-bedroom" d="M670.755,482.732L670.249,426.052L499.196,426.558L498.791,33.339L145.35,32.934L59.52,161.274L60.33,322.003L200.411,456.416L200.411,546.7L563.164,547.104L670.755,482.732Z" style="fill:white;fill-opacity:0;stroke:black;stroke-width:1px;"/>
    <path id="hallway" d="M682.511,495.726C683.523,494.207 980.082,496.232 980.082,496.232L979.576,527.608L1176.944,529.126L1178.462,659.693L575.729,659.187L574.717,560.503" style="fill:white;fill-opacity:0;stroke:black;stroke-width:1px;"/>
    <path id="den" d="M904.677,478.013L690.608,477.507L689.596,32.934L980.082,32.934L979.576,237.628L901.134,238.641" style="fill:white;fill-opacity:0;stroke:black;stroke-width:1px;"/>
    <g id="living-room" transform="matrix(1.002694,0,0,0.995165,-4.417389,2.547196)">
        <path d="M1000.562,32.934L1554.206,32.934L1639.732,135.607L1637.708,365.871L1553.7,478.013L1178.462,478.013L1178.462,526.296L1032.444,526.802L1033.457,510.101L999.55,509.089" style="fill:white;fill-opacity:0;stroke:black;stroke-width:1px;"/>
    </g>
    <path id="kitchen" d="M1052.355,677.56L1197.091,678.572L1199.116,495.161L1545.776,495.161L1545.472,1062.681L1051.95,1062.681" style="fill:white;fill-opacity:0;stroke:black;stroke-width:1px;"/>
    <path id="master-bathroom" d="M515.884,401.922L670.755,401.847L670.755,33.958L516.204,33.851" style="fill:white;fill-opacity:0;stroke:black;stroke-width:1px;"/>
    <path id="guest-bathroom" d="M302.173,917.984L557.053,917.984L557.053,1064.08L301.675,1063.914" style="fill:white;fill-opacity:0;stroke:black;stroke-width:1px;"/>
</svg>
